<?xml version="1.0" standalone="no"?>
<!DOCTYPE svg PUBLIC "-//W3C//DTD SVG 20010904//EN"
 "http://www.w3.org/TR/2001/REC-SVG-20010904/DTD/svg10.dtd">
<svg version="1.0" xmlns="http://www.w3.org/2000/svg"
 width="225.000000pt" height="225.000000pt" viewBox="0 0 225.000000 225.000000"
 preserveAspectRatio="xMidYMid meet">
<metadata>
Created by potrace 1.10, written by Peter Selinger 2001-2011
</metadata>
<g transform="translate(0.000000,225.000000) scale(0.100000,-0.100000)"
fill="#000000" stroke="none">
<path d="M850 1740 c0 -4 -11 -13 -25 -20 -28 -15 -55 -88 -55 -147 0 -46 30
-174 46 -197 7 -10 10 -25 7 -32 -3 -8 0 -14 6 -14 6 0 11 -9 11 -20 0 -11 3
-20 8 -20 4 0 13 -12 19 -27 11 -25 43 -60 107 -120 11 -10 40 -18 76 -21 52
-4 60 -2 93 27 19 18 50 62 69 99 18 37 37 70 43 74 5 4 28 8 49 8 55 0 120
41 152 96 36 61 31 140 -11 184 -25 26 -36 30 -82 30 -51 0 -56 -3 -98 -46
-25 -25 -45 -52 -45 -60 0 -8 -4 -14 -10 -14 -5 0 -10 -6 -10 -14 0 -20 -32
-30 -45 -14 -5 8 -43 58 -83 111 -86 114 -120 140 -179 142 -24 1 -43 -1 -43
-5z m91 -43 c19 -12 72 -73 119 -135 75 -99 125 -151 134 -141 2 2 20 37 41
77 61 118 121 150 182 98 24 -21 28 -31 28 -79 0 -63 -19 -96 -76 -135 -27
-19 -45 -23 -86 -20 l-52 3 -32 -74 c-36 -83 -94 -151 -128 -151 -67 0 -153
82 -207 197 -112 237 -65 456 77 360z"/>
<path d="M868 1649 c-14 -8 -18 -23 -18 -67 0 -93 65 -205 152 -264 59 -40 84
-37 134 18 l43 45 -77 78 c-42 43 -102 105 -132 139 -56 63 -71 70 -102 51z
m120 -121 c38 -46 84 -96 101 -112 38 -36 39 -55 4 -80 -25 -19 -27 -19 -60
-1 -35 19 -113 104 -113 123 0 6 -6 15 -13 19 -15 9 -35 88 -29 116 7 36 42
16 110 -65z"/>
<path d="M1332 1554 c-12 -8 -39 -47 -58 -86 -39 -78 -37 -88 22 -88 79 0 149
126 96 173 -23 21 -32 21 -60 1z m38 -58 c0 -31 -36 -76 -61 -76 -22 0 -24 12
-8 43 29 54 69 74 69 33z"/>
<path d="M684 1003 c-30 -6 -89 -60 -112 -103 -12 -21 -25 -33 -33 -30 -8 2
-31 4 -52 3 l-38 -1 6 42 c6 35 3 44 -19 65 -35 32 -68 22 -99 -30 l-25 -41
-12 23 c-37 71 -80 86 -120 44 l-24 -26 18 -51 c40 -112 82 -193 110 -208 24
-12 31 -12 54 0 15 9 37 35 49 59 25 48 43 72 43 55 0 -20 41 -54 66 -54 13 0
35 7 48 16 23 14 25 14 51 -20 50 -65 145 -86 211 -46 l33 21 38 -21 c49 -26
115 -26 163 1 l38 21 30 -22 c34 -25 60 -18 88 25 l16 25 40 -36 c31 -27 45
-34 62 -29 28 10 57 10 78 1 18 -8 60 25 70 54 3 11 14 6 39 -18 47 -44 66
-48 95 -21 l24 23 44 -22 c70 -35 136 -28 186 20 l25 24 31 -33 c37 -39 47
-41 79 -8 21 21 25 33 25 89 0 48 4 69 16 78 40 32 64 58 64 68 0 6 -11 22
-25 36 -25 25 -30 25 -153 25 -70 0 -148 1 -174 1 -28 1 -57 -6 -72 -15 -31
-21 -50 -21 -66 -2 -20 24 -56 18 -82 -14 l-24 -28 -32 28 c-32 29 -65 36 -91
20 -7 -5 -25 -4 -42 2 -26 10 -32 8 -61 -20 l-33 -32 -33 30 c-38 34 -64 37
-98 10 -23 -18 -24 -18 -70 5 -58 29 -82 30 -144 3 l-49 -21 -44 21 c-41 20
-67 23 -113 14z m-412 -108 c14 -38 29 -79 33 -90 5 -15 15 2 39 70 26 72 37
91 55 93 12 2 24 -3 27 -11 6 -16 -71 -213 -91 -236 -27 -29 -50 -2 -97 110
-48 114 -51 142 -14 137 16 -2 27 -20 48 -73z m529 57 c31 -26 20 -57 -19 -48
-72 18 -80 18 -101 -3 -28 -28 -29 -91 -1 -116 19 -17 42 -17 113 0 24 7 27 5
27 -18 0 -18 -9 -29 -34 -41 -42 -20 -67 -20 -110 -2 -50 21 -76 60 -76 115 1
55 16 85 56 112 38 25 114 26 145 1z m229 2 c92 -55 75 -198 -28 -234 -87 -30
-172 33 -172 128 0 38 5 50 39 83 34 34 44 39 86 39 26 0 59 -7 75 -16z m191
-58 l54 -74 5 71 c5 69 6 72 30 72 l25 0 3 -117 c2 -108 1 -118 -17 -128 -23
-12 -36 -1 -103 92 l-43 59 -3 -70 c-3 -75 -19 -104 -46 -82 -11 10 -15 38
-14 119 0 159 25 172 109 58z m259 -5 l55 -74 5 74 c4 66 7 74 25 74 19 0 20
-8 23 -119 4 -165 -14 -173 -103 -47 -28 38 -53 70 -56 71 -4 0 -4 -31 -1 -68
3 -54 1 -70 -12 -81 -13 -11 -19 -11 -31 -1 -12 10 -15 37 -15 125 0 61 3 115
7 119 19 19 52 -5 103 -73z m338 63 c45 -32 16 -66 -38 -44 -41 17 -77 5 -95
-30 -31 -60 8 -117 72 -106 75 12 78 12 78 -9 0 -13 -13 -26 -38 -39 -51 -24
-100 -15 -144 29 -29 29 -33 40 -33 84 0 85 44 130 130 131 26 0 55 -7 68 -16z
m233 0 c11 -14 11 -18 -4 -29 -9 -7 -28 -10 -42 -7 l-25 4 0 -95 c0 -72 -4
-98 -15 -107 -12 -10 -18 -10 -30 0 -11 9 -15 35 -15 106 l0 94 -34 0 c-36 0
-53 19 -33 39 6 6 47 11 98 11 67 0 90 -4 100 -16z m-1281 -92 c21 -17 22 -19
5 -36 -25 -25 -69 -17 -73 13 -6 40 31 53 68 23z m1040 6 c8 1 26 3 40 4 23 3
25 0 28 -47 l3 -50 -25 24 c-21 20 -31 22 -74 16 -42 -6 -52 -4 -60 11 -7 13
-7 25 0 37 8 15 16 18 41 12 18 -4 39 -7 47 -7z m-1286 -24 c31 -31 13 -74
-31 -74 -55 0 -47 83 9 89 4 1 14 -6 22 -15z"/>
<path d="M910 900 c-26 -26 -27 -90 -2 -113 25 -23 85 -22 105 1 10 10 17 34
17 54 0 66 -75 103 -120 58z m70 -35 c19 -23 8 -50 -20 -50 -19 0 -26 6 -28
24 -5 35 26 53 48 26z"/>
</g>
</svg>
